<svg id="Layer_1" data-name="Layer 1" xmlns="http://www.w3.org/2000/svg" xmlns:xlink="http://www.w3.org/1999/xlink" viewBox="0 0 1628 1034">
  <defs>
    <style>
      .cls-1 {
        fill: none;
      }

      .cls-2 {
        fill: #29abe2;
      }

      .cls-3 {
        fill: #3d2f45;
      }

      .cls-4 {
        fill: #ff4d60;
      }

      .cls-5 {
        fill: #bf593a;
      }

      .cls-6 {
        fill: #96442b;
      }

      .cls-7 {
        fill: #852028;
      }

      .cls-8 {
        fill: #fffaf1;
      }

      .cls-9 {
        fill: #b8343f;
      }

      .cls-10 {
        fill: #66273a;
      }

      .cls-11 {
        fill: #d64151;
      }

      .cls-12 {
        fill: #9c2f3b;
      }

      .cls-13 {
        fill: #5c4769;
      }

      .cls-14 {
        fill: #bf571f;
      }

      .cls-15 {
        fill: #f58a4c;
      }

      .cls-16 {
        fill: #ffa870;
      }

      .cls-17 {
        fill: #ff8366;
      }

      .cls-18 {
        fill: #7a2f45;
      }

      .cls-19 {
        fill: #a12d37;
      }

      .cls-20 {
        fill: #fff;
      }

      .cls-21 {
        fill: #c93945;
      }

      .cls-22 {
        fill: #644b6e;
      }

      .cls-23 {
        fill: #382a3d;
      }

      .cls-24 {
        fill: #96c466;
      }

      .cls-25 {
        fill: #7bad47;
      }

      .cls-26 {
        fill: #d1e6ff;
      }

      .cls-27 {
        fill: #c6f7be;
      }

      .cls-28 {
        fill: #b3e084;
      }

      .cls-29 {
        fill: #dfffbd;
      }

      .cls-30 {
        fill: #6fc716;
      }

      .cls-31 {
        clip-path: url(#clip-path);
      }

      .cls-32 {
        fill: #73648c;
      }

      .cls-33 {
        fill: #f59055;
      }

      .cls-34 {
        fill: #f57355;
      }

      .cls-35 {
        fill: #fe932e;
      }

      .cls-36 {
        fill: #f27501;
      }

      .cls-37 {
        fill: #fcea10;
      }

      .cls-38 {
        fill: #e6332a;
      }

      .cls-39 {
        fill: #8cb214;
      }

      .cls-40 {
        fill: #f39200;
      }

      .cls-41 {
        fill: #95c11f;
      }

      .cls-42 {
        fill: #d81d19;
      }

      .cls-43 {
        fill: #33415e;
      }

      .cls-44 {
        fill: #263147;
      }

      .cls-45 {
        fill: #0071bc;
      }
    </style>
    <clipPath id="clip-path" transform="translate(17)">
      <rect class="cls-1" x="942" y="526.3" width="991.3" height="733" transform="translate(-172 1415.3) rotate(-49.8)"/>
    </clipPath>
  </defs>
  <rect class="cls-2" x="17" width="1611" height="1026"/>
  <g id="mechanic">
    <path class="cls-3" d="M1358.4,916.5h-72.5c-68.6,0-121.8-60-113.6-128.1l14.2-117.1A136.6,136.6,0,0,1,1322.2,551h0a136.8,136.8,0,0,1,135.7,120.3L1472,788.4C1480.2,856.5,1427,916.5,1358.4,916.5Z" transform="translate(17)"/>
    <path class="cls-4" d="M1465.7,1020H1179.2v-.3a131.9,131.9,0,0,1,62.5-112.2l4.8-2.8a131.1,131.1,0,0,1,64.7-16.9h22.3a131.9,131.9,0,0,1,64.9,17l4.8,2.8A132.4,132.4,0,0,1,1465.7,1020Z" transform="translate(17)"/>
    <path class="cls-5" d="M1403.2,907.6V911a80.8,80.8,0,0,1-161.5,0v-3.5l4.8-2.8a131.1,131.1,0,0,1,64.7-16.9h22.3a131.9,131.9,0,0,1,64.9,17Z" transform="translate(17)"/>
    <path class="cls-6" d="M1295.4,855h88.1a0,0,0,0,1,0,0v43.7a43.9,43.9,0,0,1-43.9,43.9h-.1a44.1,44.1,0,0,1-44.1-44.1V855a0,0,0,0,1,0,0Z"/>
    <path class="cls-5" d="M1432.4,707v60.6a110.2,110.2,0,0,1-220.4,0V707Z" transform="translate(17)"/>
    <path class="cls-7" d="M1388.3,766.8a66.4,66.4,0,0,1-3.7,22,64.5,64.5,0,0,1-31.7,36.6,66.8,66.8,0,0,1-61.9-.2,65.1,65.1,0,0,1-31.3-36.4,66.3,66.3,0,0,1-3.6-22Z" transform="translate(17)"/>
    <path class="cls-8" d="M1388.3,766.8a66.4,66.4,0,0,1-3.7,22H1259.7a66.3,66.3,0,0,1-3.6-22Z" transform="translate(17)"/>
    <path class="cls-9" d="M1352.9,825.4a66.8,66.8,0,0,1-61.9-.2,33.2,33.2,0,0,1,61.9.2Z" transform="translate(17)"/>
    <path class="cls-6" d="M1320.1,709.2h38.2a0,0,0,0,1,0,0v20a19.1,19.1,0,0,1-19.1,19.1h0a19.1,19.1,0,0,1-19.1-19.1v-20a0,0,0,0,1,0,0Z"/>
    <path class="cls-7" d="M1310.5,707h-8.8c.1,1.4.3,2.9.3,4.4s-.2,3-.3,4.4a32.7,32.7,0,0,1-64.8,0,32.4,32.4,0,0,1,0-8.8H1228a32.5,32.5,0,0,0-.3,4.4,31.5,31.5,0,0,0,.3,4.4,41.5,41.5,0,0,0,82.5,0,31.5,31.5,0,0,0,.3-4.4A32.5,32.5,0,0,0,1310.5,707Z" transform="translate(17)"/>
    <path class="cls-7" d="M1416.3,707h-8.9a32.4,32.4,0,0,1,0,8.8,32.7,32.7,0,0,1-64.8,0,32.4,32.4,0,0,1,0-8.8h-8.8a32.5,32.5,0,0,0-.3,4.4,31.5,31.5,0,0,0,.3,4.4,41.5,41.5,0,0,0,82.5,0,31.5,31.5,0,0,0,.3-4.4A32.5,32.5,0,0,0,1416.3,707Z" transform="translate(17)"/>
    <path class="cls-5" d="M1275.3,653.5H1403a46.3,46.3,0,0,1,46.3,46.3V707a0,0,0,0,1,0,0H1229a0,0,0,0,1,0,0v-7.1A46.3,46.3,0,0,1,1275.3,653.5Z"/>
    <path class="cls-10" d="M1282.5,712.5a13.2,13.2,0,1,1-13.2-13.2A13.2,13.2,0,0,1,1282.5,712.5Z" transform="translate(17)"/>
    <circle class="cls-10" cx="1392.1" cy="712.5" r="13.2"/>
    <rect class="cls-7" x="1229" y="707" width="220.4" height="8.81"/>
  </g>
  <g id="artist">
    <g>
      <path class="cls-11" d="M1428.4,934.7h-21v-15A108.3,108.3,0,0,1,1428.4,934.7Z" transform="translate(17)"/>
      <path class="cls-11" d="M1450.8,963.1h-15v-21A111.4,111.4,0,0,1,1450.8,963.1Z" transform="translate(17)"/>
      <path class="cls-12" d="M1435.8,942.1v21h-28.4V934.7h21A86.1,86.1,0,0,1,1435.8,942.1Z" transform="translate(17)"/>
      <path class="cls-4" d="M1407.4,919.7v15h-28.5V908.9A107.6,107.6,0,0,1,1407.4,919.7Z" transform="translate(17)"/>
      <path class="cls-11" d="M1378.9,908.9v25.8h-28.4V906.3h4.4A111,111,0,0,1,1378.9,908.9Z" transform="translate(17)"/>
      <rect class="cls-11" x="1379" y="934.7" width="28.4" height="28.43" transform="translate(2803.3 1897.9) rotate(180)"/>
      <rect class="cls-12" x="1350.5" y="934.7" width="28.4" height="28.43" transform="translate(2746.5 1897.9) rotate(180)"/>
      <rect class="cls-4" x="1339.1" y="906.3" width="28.4" height="28.43"/>
      <rect class="cls-11" x="1310.7" y="906.3" width="28.4" height="28.43"/>
      <rect class="cls-11" x="1322.1" y="934.7" width="28.4" height="28.43" transform="translate(2689.6 1897.9) rotate(180)"/>
      <rect class="cls-12" x="1293.7" y="934.7" width="28.4" height="28.43" transform="translate(2632.8 1897.9) rotate(180)"/>
      <path class="cls-4" d="M1293.7,906.3v28.4h-28.5V908.9a112.6,112.6,0,0,1,24.1-2.6Z" transform="translate(17)"/>
      <path class="cls-11" d="M1265.2,908.9v25.8h-28.4v-15A108.3,108.3,0,0,1,1265.2,908.9Z" transform="translate(17)"/>
      <rect class="cls-11" x="1265.2" y="934.7" width="28.4" height="28.43" transform="translate(2575.9 1897.9) rotate(180)"/>
      <rect class="cls-12" x="1236.8" y="934.7" width="28.4" height="28.43" transform="translate(2519 1897.9) rotate(180)"/>
      <path class="cls-4" d="M1236.8,919.7v15h-21A108.3,108.3,0,0,1,1236.8,919.7Z" transform="translate(17)"/>
      <path class="cls-11" d="M1236.8,934.7v28.4h-28.4v-21a86.1,86.1,0,0,1,7.4-7.4Z" transform="translate(17)"/>
      <path class="cls-12" d="M1208.4,942.1v21h-15A107.1,107.1,0,0,1,1208.4,942.1Z" transform="translate(17)"/>
      <path class="cls-4" d="M1461.6,991.6h-25.8V963.1h15A107.6,107.6,0,0,1,1461.6,991.6Z" transform="translate(17)"/>
      <rect class="cls-11" x="1407.4" y="963.1" width="28.4" height="28.43" transform="translate(2860.2 1954.7) rotate(180)"/>
      <path class="cls-11" d="M1464.2,1015.6v4.4h-28.4V991.6h25.8A111.7,111.7,0,0,1,1464.2,1015.6Z" transform="translate(17)"/>
      <rect class="cls-12" x="1407.4" y="991.6" width="28.4" height="28.43" transform="translate(2860.2 2011.6) rotate(180)"/>
      <rect class="cls-4" x="1379" y="963.1" width="28.4" height="28.43" transform="translate(2803.3 1954.7) rotate(180)"/>
      <rect class="cls-11" x="1350.5" y="963.1" width="28.4" height="28.43" transform="translate(2746.5 1954.7) rotate(180)"/>
      <rect class="cls-11" x="1379" y="991.6" width="28.4" height="28.43" transform="translate(2803.3 2011.6) rotate(180)"/>
      <rect class="cls-12" x="1350.5" y="991.6" width="28.4" height="28.43" transform="translate(2746.5 2011.6) rotate(180)"/>
      <rect class="cls-4" x="1322.1" y="963.1" width="28.4" height="28.43" transform="translate(2689.6 1954.7) rotate(180)"/>
      <rect class="cls-11" x="1293.7" y="963.1" width="28.4" height="28.43" transform="translate(2632.8 1954.7) rotate(180)"/>
      <rect class="cls-11" x="1322.1" y="991.6" width="28.4" height="28.43" transform="translate(2689.6 2011.6) rotate(180)"/>
      <rect class="cls-12" x="1293.7" y="991.6" width="28.4" height="28.43" transform="translate(2632.8 2011.6) rotate(180)"/>
      <rect class="cls-4" x="1265.2" y="963.1" width="28.4" height="28.43" transform="translate(2575.9 1954.7) rotate(180)"/>
      <rect class="cls-11" x="1236.8" y="963.1" width="28.4" height="28.43" transform="translate(2519 1954.7) rotate(180)"/>
      <rect class="cls-11" x="1265.2" y="991.6" width="28.4" height="28.43" transform="translate(2575.9 2011.6) rotate(180)"/>
      <rect class="cls-12" x="1236.8" y="991.6" width="28.4" height="28.43" transform="translate(2519 2011.6) rotate(180)"/>
      <rect class="cls-4" x="1208.4" y="963.1" width="28.4" height="28.43" transform="translate(2462.2 1954.7) rotate(180)"/>
      <path class="cls-11" d="M1208.4,963.1v28.5h-25.8a107.6,107.6,0,0,1,10.8-28.5Z" transform="translate(17)"/>
      <rect class="cls-11" x="1208.4" y="991.6" width="28.4" height="28.43" transform="translate(2462.2 2011.6) rotate(180)"/>
      <path class="cls-12" d="M1208.4,991.6V1020h-28.5v-4.4a111.7,111.7,0,0,1,2.7-24Z" transform="translate(17)"/>
    </g>
    <path class="cls-13" d="M1322.1,867.5h0a71,71,0,0,0-71.1,71v53.1l71.1-28.5,71.1,28.5V938.5A71.1,71.1,0,0,0,1322.1,867.5Z" transform="translate(17)"/>
    <path class="cls-14" d="M1454.1,677.2l-9.9,63.3-121.8,8-121.9-8-9.8-63.3c-10.4-66.3,40.9-126.2,108-126.2H1346C1413.1,551,1464.4,610.9,1454.1,677.2Z" transform="translate(17)"/>
    <g>
      <path class="cls-15" d="M1215.1,722.7h78.6v56.8h-78.6a28.5,28.5,0,0,1-28.5-28.4h0A28.5,28.5,0,0,1,1215.1,722.7Z" transform="translate(17)"/>
      <path class="cls-15" d="M1429.7,722.7h-79.2v56.8h79.2a28.4,28.4,0,0,0,28.4-28.4h0A28.4,28.4,0,0,0,1429.7,722.7Z" transform="translate(17)"/>
    </g>
    <path class="cls-15" d="M1295.3,862.8h87.5a0,0,0,0,1,0,0v43.3a43.6,43.6,0,0,1-43.6,43.6h-.1a43.8,43.8,0,0,1-43.8-43.8V862.8a0,0,0,0,1,0,0Z"/>
    <path class="cls-16" d="M1229.7,658.2h218.7a0,0,0,0,1,0,0V780.6a109.2,109.2,0,0,1-109.2,109.2h-.1a109.4,109.4,0,0,1-109.4-109.4V658.2A0,0,0,0,1,1229.7,658.2Z"/>
    <path class="cls-17" d="M1339,718.9h0a21.9,21.9,0,0,1,21.9,21.9V762a0,0,0,0,1,0,0h-43.7a0,0,0,0,1,0,0V740.7A21.8,21.8,0,0,1,1339,718.9Z"/>
    <path class="cls-18" d="M1279.4,735.4a13.1,13.1,0,1,1-13.1-13.1A13.1,13.1,0,0,1,1279.4,735.4Z" transform="translate(17)"/>
    <path class="cls-18" d="M1391,735.4a13.2,13.2,0,1,1-13.2-13.1A13.2,13.2,0,0,1,1391,735.4Z" transform="translate(17)"/>
    <path class="cls-14" d="M1323,908.3h-1.8a108.5,108.5,0,0,1-108.5-108.4h0a37.9,37.9,0,0,1,37.8-37.9h143.1a37.9,37.9,0,0,1,37.8,37.9h0A108.4,108.4,0,0,1,1323,908.3Z" transform="translate(17)"/>
    <path class="cls-19" d="M1373.6,795.5a50.9,50.9,0,0,1-2.9,17.2,50.4,50.4,0,0,1-24.7,28.5l-2,1a52.4,52.4,0,0,1-43.8,0,13.4,13.4,0,0,1-2.4-1.2,50.5,50.5,0,0,1-24.4-28.3,53.5,53.5,0,0,1-2.8-17.2Z" transform="translate(17)"/>
    <path class="cls-20" d="M1373.6,795.5a50.9,50.9,0,0,1-2.9,17.2h-97.3a53.5,53.5,0,0,1-2.8-17.2Z" transform="translate(17)"/>
    <path class="cls-21" d="M1344,842.2a52.4,52.4,0,0,1-43.8,0,21.9,21.9,0,0,1,43.8,0Z" transform="translate(17)"/>
    <rect class="cls-14" x="1258.2" y="692.6" width="50.3" height="13.12"/>
    <rect class="cls-14" x="1369.7" y="692.6" width="50.3" height="13.12"/>
    <circle class="cls-20" cx="1339.1" cy="991.6" r="8.9"/>
  </g>
  <g id="zombie">
    <path class="cls-22" d="M1480.5,995.1V1020H1163.9V995.1a121.1,121.1,0,0,1,74.5-111.7,130.5,130.5,0,0,1,19.5-6.3l2-.4a117.9,117.9,0,0,1,26.1-2.8h73a117.4,117.4,0,0,1,27.4,3.1l1.9.4a121.2,121.2,0,0,1,92.2,117.7Z" transform="translate(17)"/>
    <path class="cls-23" d="M1405.9,883.2v23.5a83.8,83.8,0,1,1-167.5,0V883.4a130.5,130.5,0,0,1,19.5-6.3l2-.4a117.9,117.9,0,0,1,26.1-2.8h73a117.4,117.4,0,0,1,27.4,3.1l1.9.4A120.8,120.8,0,0,1,1405.9,883.2Z" transform="translate(17)"/>
    <path class="cls-24" d="M1386.4,877v29.7a64.3,64.3,0,1,1-128.5,0V877.1l2-.4a117.9,117.9,0,0,1,26.1-2.8h73.1A117.2,117.2,0,0,1,1386.4,877Z" transform="translate(17)"/>
    <path class="cls-24" d="M1312.4,1000.6V952.3h17.1v48.3a8.5,8.5,0,0,1-8.5,8.5h0A8.6,8.6,0,0,1,1312.4,1000.6Z" transform="translate(17)"/>
    <path class="cls-24" d="M1344.1,982.5V940.7h17v41.8a8.5,8.5,0,0,1-8.5,8.5h0A8.5,8.5,0,0,1,1344.1,982.5Z" transform="translate(17)"/>
    <path class="cls-25" d="M1290.5,843.3h97.4a0,0,0,0,1,0,0v48.5a48.3,48.3,0,0,1-48.3,48.3h-.4a48.7,48.7,0,0,1-48.7-48.7V843.3A0,0,0,0,1,1290.5,843.3Z"/>
    <path class="cls-26" d="M1501.8,794.9v52.4H1177.7V813.6l-17.6,33.7h-17.5V794.9c0-99.2,80.5-179.6,179.6-179.6a179.6,179.6,0,0,1,179.6,179.6Z" transform="translate(17)"/>
    <path class="cls-27" d="M1322.2,875.7a109.7,109.7,0,0,1-109.6-109.6V672.8c0-60.5,49.3-109.6,109.8-109.6a109.6,109.6,0,0,1,109.4,109.6v93.3A109.7,109.7,0,0,1,1322.2,875.7Z" transform="translate(17)"/>
    <path class="cls-24" d="M1200.6,715.7h87.5v63.4h-87.5a32,32,0,0,1-31.7-32v.2A31.6,31.6,0,0,1,1200.6,715.7Z" transform="translate(17)"/>
    <path class="cls-24" d="M1476.1,747.1a30.8,30.8,0,0,1-1,8,7.4,7.4,0,0,0-4.4-1.3,8.2,8.2,0,0,0-8.2,8.2,8.4,8.4,0,0,0,4.6,7.4,31.8,31.8,0,0,1-22.7,9.7h-88.1V715.7h88.1A31.5,31.5,0,0,1,1476.1,747.1Z" transform="translate(17)"/>
    <path class="cls-28" d="M1443.9,672.8v93.3c0,4.4-.2,8.7-.6,13a121.8,121.8,0,0,1-72.4,98.6c-2.1,1-4.3,1.8-6.4,2.6a121.5,121.5,0,0,1-84.6,0c-2.2-.8-4.3-1.6-6.4-2.6a121.6,121.6,0,0,1-72.4-98.6,112,112,0,0,1-.7-13V672.8c0-6.8.9-13.1,2-20.4h34.2c19.8,0,38.2-9.7,48.6-25.9,18-3.5,32.1-19.2,32.1-38.2V551.2c0-.2,3.6-.2,5.7-.2a120.4,120.4,0,0,1,85.7,35.7C1430.7,608.7,1443.9,639.1,1443.9,672.8Z" transform="translate(17)"/>
    <path class="cls-18" d="M1278,716.9a14.7,14.7,0,1,1-14.6-14.6A14.6,14.6,0,0,1,1278,716.9Z" transform="translate(17)"/>
    <circle class="cls-29" cx="1408.2" cy="715.1" r="39.8"/>
    <circle class="cls-18" cx="1395.7" cy="733.8" r="7.8"/>
    <path class="cls-24" d="M1299.4,715.7c0,19.5-16.2,36.1-36,36.1a36.4,36.4,0,0,1-36.1-36.1Z" transform="translate(17)"/>
    <path class="cls-30" d="M1306.5,873.9h0a6.3,6.3,0,0,1-6.2-6.3v-35h12.1V868A5.9,5.9,0,0,1,1306.5,873.9Z" transform="translate(17)"/>
    <path class="cls-30" d="M1317.3,551.2v37.1c0,19-14.1,34.7-32.1,38.2-10.4,16.2-28.8,25.9-48.6,25.9h-34.2l16.8-17h17.4c17,0,31.5-9.8,37.5-24.4h3.1c12.3,0,23.1-10.5,23.1-22.7V565.4Z" transform="translate(17)"/>
    <path class="cls-24" d="M1403.4,766.9h-52V738.5h80.4A28.4,28.4,0,0,1,1403.4,766.9Z" transform="translate(17)"/>
    <rect class="cls-24" x="1329.4" y="786.4" width="19.5" height="34.09"/>
    <path class="cls-30" d="M1344.1,834.6v74.3a7.6,7.6,0,0,1-7.3,7.9c-4.3-.1-7.3-3.6-7.3-7.9V834.6Z" transform="translate(17)"/>
    <path class="cls-30" d="M1344.1,847.2v8.4a25.5,25.5,0,0,1-13.4,3.8h-18.3a25,25,0,0,1-12.1-3.8v-8.4Z" transform="translate(17)"/>
    <path class="cls-18" d="M1344.1,833.9a13.4,13.4,0,0,1-13.4,13.3h-17a13.4,13.4,0,0,1-13.4-13.3h0a13.4,13.4,0,0,1,13.4-13.4h17a13.4,13.4,0,0,1,13.4,13.4Z" transform="translate(17)"/>
    <path class="cls-24" d="M1273.5,851.4v26.3a121.6,121.6,0,0,1-72.4-98.6h0A72.4,72.4,0,0,1,1273.5,851.4Z" transform="translate(17)"/>
    <path class="cls-24" d="M1443.3,779.1a121.8,121.8,0,0,1-72.4,98.6V851.4a72.4,72.4,0,0,1,72.4-72.3Z" transform="translate(17)"/>
    <rect class="cls-18" x="1329.4" y="738.5" width="19.5" height="28.35"/>
  </g>
  <g class="cls-31">
    <g id="baker">
      <path class="cls-32" d="M1470.5,1020H1173.8v-.3a142.3,142.3,0,0,1,2.7-27.1,134.3,134.3,0,0,1,8.6-27.4,138.4,138.4,0,0,1,43.3-54.8,145,145,0,0,1,20.9-12.9,136.5,136.5,0,0,1,61.2-14.4h23.1a135.8,135.8,0,0,1,61.4,14.5,146.9,146.9,0,0,1,20.8,12.8,139,139,0,0,1,27.3,27.4,136.4,136.4,0,0,1,16,27.4,141.1,141.1,0,0,1,8.7,27.4A137.6,137.6,0,0,1,1470.5,1020Z" transform="translate(17)"/>
      <polygon class="cls-4" points="1487.5 1020 1190.8 1020 1190.8 1019.7 1193.5 992.6 1484.8 992.6 1487.5 1020"/>
      <path class="cls-4" d="M1459.1,965.2h-274a141.3,141.3,0,0,1,16-27.4h242A136.4,136.4,0,0,1,1459.1,965.2Z" transform="translate(17)"/>
      <path class="cls-4" d="M1415.8,910.4H1228.4a136.1,136.1,0,0,1,82.1-27.3h23.1A137.1,137.1,0,0,1,1415.8,910.4Z" transform="translate(17)"/>
      <g>
        <path class="cls-13" d="M1209.4,828.6h69.9V676.3h-69.9a76.1,76.1,0,0,0-74.9,62.7h0A76.2,76.2,0,0,0,1209.4,828.6Z" transform="translate(17)"/>
        <path class="cls-13" d="M1434.9,828.6h-69.8V676.3h69.8a76.2,76.2,0,0,1,75,62.7h0C1518.3,785.6,1482.4,828.6,1434.9,828.6Z" transform="translate(17)"/>
      </g>
      <path class="cls-13" d="M1339.2,551h0a142,142,0,0,1,142,142v0A114.1,114.1,0,0,1,1367,807.1h-55.7A114.1,114.1,0,0,1,1197.2,693v0A142,142,0,0,1,1339.2,551Z"/>
      <path class="cls-33" d="M1208.2,700.8h82v59.3h-82a29.7,29.7,0,0,1-29.7-29.7h0A29.6,29.6,0,0,1,1208.2,700.8Z" transform="translate(17)"/>
      <path class="cls-33" d="M1436.7,700.8h-82.6v59.3h82.6a29.7,29.7,0,0,0,29.7-29.7h0A29.6,29.6,0,0,0,1436.7,700.8Z" transform="translate(17)"/>
      <path class="cls-16" d="M1395,897.6a73.1,73.1,0,0,1-72.7,67.6h-.1a73.2,73.2,0,0,1-72.9-67.7,136.5,136.5,0,0,1,61.2-14.4h23.1A135.8,135.8,0,0,1,1395,897.6Z" transform="translate(17)"/>
      <path class="cls-33" d="M1293.5,847.1h91.3a0,0,0,0,1,0,0v45.2a45.5,45.5,0,0,1-45.5,45.5h-.1a45.7,45.7,0,0,1-45.7-45.7v-45A0,0,0,0,1,1293.5,847.1Z"/>
      <rect class="cls-16" x="1225.1" y="588.9" width="228.2" height="285.29" rx="114.1"/>
      <circle class="cls-18" cx="1281" cy="714" r="13.7"/>
      <circle class="cls-18" cx="1397.4" cy="714" r="13.7"/>
      <path class="cls-34" d="M1339.1,696.9h0a22.9,22.9,0,0,1,22.9,22.9v22.1a0,0,0,0,1,0,0h-45.6a0,0,0,0,1,0,0V719.6A22.7,22.7,0,0,1,1339.1,696.9Z"/>
      <path class="cls-19" d="M1390.6,760.1a70.8,70.8,0,0,1-3.7,22.8,67.5,67.5,0,0,1-32.9,38,69.4,69.4,0,0,1-64.1-.3,67.1,67.1,0,0,1-32.4-37.7,68.2,68.2,0,0,1-3.8-22.8Z" transform="translate(17)"/>
      <path class="cls-20" d="M1390.6,760.1a70.8,70.8,0,0,1-3.7,22.8H1257.5a68.2,68.2,0,0,1-3.8-22.8Z" transform="translate(17)"/>
      <path class="cls-21" d="M1354,820.9a69.4,69.4,0,0,1-64.1-.3,34.4,34.4,0,0,1,64.1.3Z" transform="translate(17)"/>
      <g>
        <path class="cls-13" d="M1371.3,581.6h-73.1a90.2,90.2,0,0,0-90.1,90.2v29h0a125.2,125.2,0,0,0,93.1-41.5Z" transform="translate(17)"/>
        <path class="cls-13" d="M1273,581.6h72.9a90.3,90.3,0,0,1,90.3,90.3v28.9h0a125.3,125.3,0,0,1-93.1-41.5Z" transform="translate(17)"/>
      </g>
    </g>
  </g>
  <g id="friend">
    <path class="cls-3" d="M303.8,517.5h34.5A34.5,34.5,0,0,1,303.8,552H131.4a69,69,0,0,1,69-69H338.3A34.5,34.5,0,0,1,303.8,517.5Z" transform="translate(17)"/>
    <path class="cls-4" d="M226,738.2h17.5A103.5,103.5,0,0,1,346.9,841.7v0a0,0,0,0,1,0,0H122.8a0,0,0,0,1,0,0v-.2A103.3,103.3,0,0,1,226,738.2Z"/>
    <path class="cls-35" d="M269.6,789.3H166.1A43.1,43.1,0,0,1,123,746.2h0a43.1,43.1,0,0,1,43.1-43.1H269.6a43.1,43.1,0,0,1,43.1,43.1h0A43.1,43.1,0,0,1,269.6,789.3Z" transform="translate(17)"/>
    <path class="cls-36" d="M289.5,734.6a17.4,17.4,0,0,1-10.7,16.1L252.3,762l-34.6,14.7-34.3-14.6-26.5-11.3a17.7,17.7,0,0,1-10.7-16.2h0A17.6,17.6,0,0,1,163.8,717H271.9A17.6,17.6,0,0,1,289.5,734.6Z" transform="translate(17)"/>
    <polygon class="cls-6" points="269.3 701.5 269.3 762 234.7 776.7 200.4 762.1 200.4 701.5 269.3 701.5"/>
    <path class="cls-20" d="M193.4,841.7h-10V781.8a5,5,0,0,1,5-5.1h0a5,5,0,0,1,5,5.1Z" transform="translate(17)"/>
    <path class="cls-20" d="M252.3,841.7H242.2V781.8a5.1,5.1,0,0,1,5.1-5.1h0a5,5,0,0,1,5,5.1Z" transform="translate(17)"/>
    <g>
      <path class="cls-6" d="M133.2,593.4h62v44.8h-62a22.4,22.4,0,0,1-22.4-22.5h0A22.4,22.4,0,0,1,133.2,593.4Z" transform="translate(17)"/>
      <path class="cls-6" d="M302.4,593.4H240v44.8h62.4a22.5,22.5,0,0,0,22.5-22.5h0A22.4,22.4,0,0,0,302.4,593.4Z" transform="translate(17)"/>
    </g>
    <path class="cls-5" d="M148.4,552H320.8a0,0,0,0,1,0,0v86.9a86.2,86.2,0,0,1-86.2,86.2h0a86.2,86.2,0,0,1-86.2-86.2V552A0,0,0,0,1,148.4,552Z"/>
    <path class="cls-19" d="M269.3,638.2a53.5,53.5,0,0,1-2.8,17.2,50.6,50.6,0,0,1-24.8,28.7,52.8,52.8,0,0,1-48.5-.2,50.8,50.8,0,0,1-24.5-28.5,53.5,53.5,0,0,1-2.8-17.2Z" transform="translate(17)"/>
    <path class="cls-20" d="M269.3,638.2a53.5,53.5,0,0,1-2.8,17.2H168.7a53.5,53.5,0,0,1-2.8-17.2Z" transform="translate(17)"/>
    <path class="cls-21" d="M241.7,684.1a52.8,52.8,0,0,1-48.5-.2,26,26,0,0,1,48.5.2Z" transform="translate(17)"/>
    <path class="cls-6" d="M234.6,590.4h0a17.2,17.2,0,0,1,17.2,17.2v16.7a0,0,0,0,1,0,0H217.4a0,0,0,0,1,0,0V607.7A17.2,17.2,0,0,1,234.6,590.4Z"/>
    <path class="cls-10" d="M184,603.4A10.4,10.4,0,1,1,173.6,593,10.3,10.3,0,0,1,184,603.4Z" transform="translate(17)"/>
    <path class="cls-10" d="M271.9,603.4a10.4,10.4,0,0,1-20.7,0,10.4,10.4,0,1,1,20.7,0Z" transform="translate(17)"/>
  </g>
  <rect class="cls-4" y="842" width="657" height="192"/>
  <g id="score">
    <g id="rainbow">
      <path class="cls-37" d="M910.9,42.9A177.1,177.1,0,0,0,822,18V75.6h-.1V197.1L894.3,71.6h0Z" transform="translate(17)"/>
      <path class="cls-38" d="M821.9,197.2,761,91.7h.1L731.9,41.1a179.6,179.6,0,0,0-66.6,65.5L687,119.1h0Z" transform="translate(17)"/>
      <path class="cls-39" d="M998.8,197.1a178.7,178.7,0,0,0-23.4-88.7l-48.2,27.8h0L822,197.1H998.8Z" transform="translate(17)"/>
      <path class="cls-40" d="M821.9,41.1h.1V18h-2.1a178.2,178.2,0,0,0-88,23.1l22.5,39h0l67.5,117h.1Z" transform="translate(17)"/>
      <path class="cls-41" d="M975.4,108.4a178.5,178.5,0,0,0-64.5-65.5L882.7,91.7h0L822,197h0l124-71.7h0Z" transform="translate(17)"/>
      <path class="cls-42" d="M821.9,197.1,716.5,136.2h0l-51.2-29.6a179.1,179.1,0,0,0-24.5,90.5H821.9Z" transform="translate(17)"/>
    </g>
    <g id="bad">
      <path class="cls-20" d="M667.6,157.9h4.8c4.1,0,8.3,2.3,8.3,9.7s-4.2,9.8-8.3,9.8v12.9h-4.8Zm4.8,14.6c3,0,3.5-1.1,3.5-4.7s-.5-5-3.5-5Z" transform="translate(17)"/>
      <path class="cls-20" d="M689.6,190.7c-6.4,0-6.4-7-6.4-7V164.6s0-7,6.4-7,6.3,7,6.3,7v19.1S695.9,190.7,689.6,190.7Zm0-28.5c-1.7,0-1.6,2.4-1.6,2.4v19.1s-.1,2.3,1.6,2.3,1.5-2.3,1.5-2.3V164.6S691.2,162.2,689.6,162.2Z" transform="translate(17)"/>
      <path class="cls-20" d="M705.1,190.7c-6.3,0-6.3-7-6.3-7V164.6s0-7,6.3-7,6.4,7,6.4,7v19.1S711.5,190.7,705.1,190.7Zm0-28.5c-1.6,0-1.5,2.4-1.5,2.4v19.1s-.1,2.3,1.5,2.3,1.6-2.3,1.6-2.3V164.6S706.8,162.2,705.1,162.2Z" transform="translate(17)"/>
      <path class="cls-20" d="M723.2,190.3l-2.5-13.7h-1.2v13.7h-4.8V157.9h4.8c5.6,0,8.1,3.3,8.1,9.4,0,3.2-.9,6.1-2.7,7.3l3.1,15.7Zm-3.7-27.7v9.6c1.3,0,3.5-.1,3.5-4.8S720.8,162.6,719.5,162.6Z" transform="translate(17)"/>
    </g>
    <g id="good">
      <path class="cls-20" d="M919.2,169.4v-5.2s.1-2.5-1.7-2.5-1.6,2.5-1.6,2.5v20.2s-.1,2.5,1.6,2.5,1.7-2.5,1.7-2.5v-6.1h-2v-4.1h6.9v16.7h-2.9l-.6-1.6a4.8,4.8,0,0,1-3.8,2c-6.3,0-5.9-7.3-5.9-7.3V164.2s0-7.3,6.6-7.3,6.6,7.3,6.6,7.3v5.2Z" transform="translate(17)"/>
      <path class="cls-20" d="M934,191.3c-6.6,0-6.6-7.3-6.6-7.3V164.2s0-7.3,6.6-7.3,6.6,7.3,6.6,7.3V184S940.6,191.3,934,191.3Zm0-29.6c-1.7,0-1.6,2.5-1.6,2.5V184s-.1,2.5,1.6,2.5,1.7-2.5,1.7-2.5V164.2S935.7,161.7,934,161.7Z" transform="translate(17)"/>
      <path class="cls-20" d="M950.2,191.3c-6.6,0-6.6-7.3-6.6-7.3V164.2s0-7.3,6.6-7.3,6.6,7.3,6.6,7.3V184S956.8,191.3,950.2,191.3Zm0-29.6c-1.7,0-1.6,2.5-1.6,2.5V184s-.1,2.5,1.6,2.5,1.7-2.5,1.7-2.5V164.2S951.9,161.7,950.2,161.7Z" transform="translate(17)"/>
      <path class="cls-20" d="M964,190.9h-3.9V157.3H964c9.2,0,9.9,3.7,9.9,16.8S973.2,190.9,964,190.9Zm1.1-4.9c3.5,0,3.7-.9,3.6-11.9s-.1-11.9-3.6-11.9Z" transform="translate(17)"/>
    </g>
    <g id="needle">
      <path id="point" class="cls-43" d="M839,188.6,824.4,70.8a1.9,1.9,0,0,0-3.8,0L805.5,188.2l.4-.2C815.8,181.6,829.8,182.1,839,188.6Z" transform="translate(17)"/>
      <circle class="cls-44" cx="821.9" cy="196.1" r="22" transform="translate(-3.7 133.1) rotate(-9.1)"/>
    </g>
  </g>
  <g id="friendbubble">
    <path class="cls-45" d="M342.3,471.8H448.9c0,42.6-21.3,63.9-21.3,63.9,64,0,85.3-63.9,85.3-63.9h42.6c42.7,0,42.7-42.7,42.7-42.7s21.3-149.3,21.3-191.9-42.6-42.7-42.6-42.7H321c-42.7,0-42.7,42.7-42.7,42.7l21.4,191.9S299.7,471.8,342.3,471.8Z" transform="translate(17)"/>
    <path class="cls-20" d="M333.8,463.2H440.4c0,42.7-21.3,64-21.3,64,63.9,0,85.3-64,85.3-64H547c42.7,0,42.7-42.6,42.7-42.6S611,271.3,611,228.6,568.3,186,568.3,186H312.4c-42.6,0-42.6,42.6-42.6,42.6l21.3,192S291.1,463.2,333.8,463.2Z" transform="translate(17)"/>
  </g>
  <g id="alienbubble">
    <path class="cls-45" d="M948.3,344.5c-103.8,0-187.9,76.3-187.9,170.4s84.1,170.3,187.9,170.3a201.5,201.5,0,0,0,100.5-26.4l87.4,26.4L1107.1,606c18.4-26.4,29.1-57.6,29.1-91.1C1136.2,420.8,1052.1,344.5,948.3,344.5Z" transform="translate(17)"/>
    <path class="cls-20" d="M938.9,336C835.1,336,751,412.3,751,506.4s84.1,170.3,187.9,170.3a201.5,201.5,0,0,0,100.5-26.4l87.4,26.4-29.1-79.2c18.4-26.4,29.1-57.6,29.1-91.1C1126.8,412.3,1042.7,336,938.9,336Z" transform="translate(17)"/>
  </g>
</svg>
