<svg viewBox="0 0 1628 1034" xmlns="http://www.w3.org/2000/svg" xmlns:xlink="http://www.w3.org/1999/xlink"><clipPath id="a" transform="translate(17)"><path d="m942 526.3h991.3v733h-991.3z" transform="matrix(.64545769 -.76379603 .76379603 .64545769 -172 1415.3)"/></clipPath><path d="m17 0h1611v1026h-1611z" fill="#29abe2"/><path d="m1358.4 916.5h-72.5c-68.6 0-121.8-60-113.6-128.1l14.2-117.1a136.6 136.6 0 0 1 135.7-120.3 136.8 136.8 0 0 1 135.7 120.3l14.1 117.1c8.2 68.1-45 128.1-113.6 128.1z" fill="#3d2f45" transform="translate(17)"/><path d="m1465.7 1020h-286.5v-.3a131.9 131.9 0 0 1 62.5-112.2l4.8-2.8a131.1 131.1 0 0 1 64.7-16.9h22.3a131.9 131.9 0 0 1 64.9 17l4.8 2.8a132.4 132.4 0 0 1 62.5 112.4z" fill="#ff4d60" transform="translate(17)"/><path d="m1403.2 907.6v3.4a80.8 80.8 0 0 1 -161.5 0v-3.5l4.8-2.8a131.1 131.1 0 0 1 64.7-16.9h22.3a131.9 131.9 0 0 1 64.9 17z" fill="#bf593a" transform="translate(17)"/><path d="m1295.4 855h88.1a0 0 0 0 1 0 0v43.7a43.9 43.9 0 0 1 -43.9 43.9h-.1a44.1 44.1 0 0 1 -44.1-44.1v-43.5a0 0 0 0 1 0 0z" fill="#96442b"/><path d="m1432.4 707v60.6a110.2 110.2 0 0 1 -220.4 0v-60.6z" fill="#bf593a" transform="translate(17)"/><path d="m1388.3 766.8a66.4 66.4 0 0 1 -3.7 22 64.5 64.5 0 0 1 -31.7 36.6 66.8 66.8 0 0 1 -61.9-.2 65.1 65.1 0 0 1 -31.3-36.4 66.3 66.3 0 0 1 -3.6-22z" fill="#852028" transform="translate(17)"/><path d="m1388.3 766.8a66.4 66.4 0 0 1 -3.7 22h-124.9a66.3 66.3 0 0 1 -3.6-22z" fill="#fffaf1" transform="translate(17)"/><path d="m1352.9 825.4a66.8 66.8 0 0 1 -61.9-.2 33.2 33.2 0 0 1 61.9.2z" fill="#b8343f" transform="translate(17)"/><path d="m1320.1 709.2h38.2a0 0 0 0 1 0 0v20a19.1 19.1 0 0 1 -19.1 19.1 19.1 19.1 0 0 1 -19.1-19.1v-20a0 0 0 0 1 0 0z" fill="#96442b"/><path d="m1310.5 707h-8.8c.1 1.4.3 2.9.3 4.4s-.2 3-.3 4.4a32.7 32.7 0 0 1 -64.8 0 32.4 32.4 0 0 1 0-8.8h-8.9a32.5 32.5 0 0 0 -.3 4.4 31.5 31.5 0 0 0 .3 4.4 41.5 41.5 0 0 0 82.5 0 31.5 31.5 0 0 0 .3-4.4 32.5 32.5 0 0 0 -.3-4.4z" fill="#852028" transform="translate(17)"/><path d="m1416.3 707h-8.9a32.4 32.4 0 0 1 0 8.8 32.7 32.7 0 0 1 -64.8 0 32.4 32.4 0 0 1 0-8.8h-8.8a32.5 32.5 0 0 0 -.3 4.4 31.5 31.5 0 0 0 .3 4.4 41.5 41.5 0 0 0 82.5 0 31.5 31.5 0 0 0 .3-4.4 32.5 32.5 0 0 0 -.3-4.4z" fill="#852028" transform="translate(17)"/><path d="m1275.3 653.5h127.7a46.3 46.3 0 0 1 46.3 46.3v7.2a0 0 0 0 1 0 0h-220.3a0 0 0 0 1 0 0v-7.1a46.3 46.3 0 0 1 46.3-46.4z" fill="#bf593a"/><path d="m1282.5 712.5a13.2 13.2 0 1 1 -13.2-13.2 13.2 13.2 0 0 1 13.2 13.2z" fill="#66273a" transform="translate(17)"/><circle cx="1392.1" cy="712.5" fill="#66273a" r="13.2"/><path d="m1229 707h220.4v8.81h-220.4z" fill="#852028"/><path d="m1428.4 934.7h-21v-15a108.3 108.3 0 0 1 21 15z" fill="#d64151" transform="translate(17)"/><path d="m1450.8 963.1h-15v-21a111.4 111.4 0 0 1 15 21z" fill="#d64151" transform="translate(17)"/><path d="m1435.8 942.1v21h-28.4v-28.4h21a86.1 86.1 0 0 1 7.4 7.4z" fill="#9c2f3b" transform="translate(17)"/><path d="m1407.4 919.7v15h-28.5v-25.8a107.6 107.6 0 0 1 28.5 10.8z" fill="#ff4d60" transform="translate(17)"/><path d="m1378.9 908.9v25.8h-28.4v-28.4h4.4a111 111 0 0 1 24 2.6z" fill="#d64151" transform="translate(17)"/><path d="m1379 934.7h28.4v28.43h-28.4z" fill="#d64151" transform="matrix(-1 0 0 -1 2803.3 1897.9)"/><path d="m1350.5 934.7h28.4v28.43h-28.4z" fill="#9c2f3b" transform="matrix(-1 0 0 -1 2746.5 1897.9)"/><path d="m1339.1 906.3h28.4v28.43h-28.4z" fill="#ff4d60"/><path d="m1310.7 906.3h28.4v28.43h-28.4z" fill="#d64151"/><path d="m1322.1 934.7h28.4v28.43h-28.4z" fill="#d64151" transform="matrix(-1 0 0 -1 2689.6 1897.9)"/><path d="m1293.7 934.7h28.4v28.43h-28.4z" fill="#9c2f3b" transform="matrix(-1 0 0 -1 2632.8 1897.9)"/><path d="m1293.7 906.3v28.4h-28.5v-25.8a112.6 112.6 0 0 1 24.1-2.6z" fill="#ff4d60" transform="translate(17)"/><path d="m1265.2 908.9v25.8h-28.4v-15a108.3 108.3 0 0 1 28.4-10.8z" fill="#d64151" transform="translate(17)"/><path d="m1265.2 934.7h28.4v28.43h-28.4z" fill="#d64151" transform="matrix(-1 0 0 -1 2575.9 1897.9)"/><path d="m1236.8 934.7h28.4v28.43h-28.4z" fill="#9c2f3b" transform="matrix(-1 0 0 -1 2519 1897.9)"/><path d="m1236.8 919.7v15h-21a108.3 108.3 0 0 1 21-15z" fill="#ff4d60" transform="translate(17)"/><path d="m1236.8 934.7v28.4h-28.4v-21a86.1 86.1 0 0 1 7.4-7.4z" fill="#d64151" transform="translate(17)"/><path d="m1208.4 942.1v21h-15a107.1 107.1 0 0 1 15-21z" fill="#9c2f3b" transform="translate(17)"/><path d="m1461.6 991.6h-25.8v-28.5h15a107.6 107.6 0 0 1 10.8 28.5z" fill="#ff4d60" transform="translate(17)"/><path d="m1407.4 963.1h28.4v28.43h-28.4z" fill="#d64151" transform="matrix(-1 0 0 -1 2860.2 1954.7)"/><path d="m1464.2 1015.6v4.4h-28.4v-28.4h25.8a111.7 111.7 0 0 1 2.6 24z" fill="#d64151" transform="translate(17)"/><path d="m1407.4 991.6h28.4v28.43h-28.4z" fill="#9c2f3b" transform="matrix(-1 0 0 -1 2860.2 2011.6)"/><path d="m1379 963.1h28.4v28.43h-28.4z" fill="#ff4d60" transform="matrix(-1 0 0 -1 2803.3 1954.7)"/><path d="m1350.5 963.1h28.4v28.43h-28.4z" fill="#d64151" transform="matrix(-1 0 0 -1 2746.5 1954.7)"/><path d="m1379 991.6h28.4v28.43h-28.4z" fill="#d64151" transform="matrix(-1 0 0 -1 2803.3 2011.6)"/><path d="m1350.5 991.6h28.4v28.43h-28.4z" fill="#9c2f3b" transform="matrix(-1 0 0 -1 2746.5 2011.6)"/><path d="m1322.1 963.1h28.4v28.43h-28.4z" fill="#ff4d60" transform="matrix(-1 0 0 -1 2689.6 1954.7)"/><path d="m1293.7 963.1h28.4v28.43h-28.4z" fill="#d64151" transform="matrix(-1 0 0 -1 2632.8 1954.7)"/><path d="m1322.1 991.6h28.4v28.43h-28.4z" fill="#d64151" transform="matrix(-1 0 0 -1 2689.6 2011.6)"/><path d="m1293.7 991.6h28.4v28.43h-28.4z" fill="#9c2f3b" transform="matrix(-1 0 0 -1 2632.8 2011.6)"/><path d="m1265.2 963.1h28.4v28.43h-28.4z" fill="#ff4d60" transform="matrix(-1 0 0 -1 2575.9 1954.7)"/><path d="m1236.8 963.1h28.4v28.43h-28.4z" fill="#d64151" transform="matrix(-1 0 0 -1 2519 1954.7)"/><path d="m1265.2 991.6h28.4v28.43h-28.4z" fill="#d64151" transform="matrix(-1 0 0 -1 2575.9 2011.6)"/><path d="m1236.8 991.6h28.4v28.43h-28.4z" fill="#9c2f3b" transform="matrix(-1 0 0 -1 2519 2011.6)"/><path d="m1208.4 963.1h28.4v28.43h-28.4z" fill="#ff4d60" transform="matrix(-1 0 0 -1 2462.2 1954.7)"/><path d="m1208.4 963.1v28.5h-25.8a107.6 107.6 0 0 1 10.8-28.5z" fill="#d64151" transform="translate(17)"/><path d="m1208.4 991.6h28.4v28.43h-28.4z" fill="#d64151" transform="matrix(-1 0 0 -1 2462.2 2011.6)"/><path d="m1208.4 991.6v28.4h-28.5v-4.4a111.7 111.7 0 0 1 2.7-24z" fill="#9c2f3b" transform="translate(17)"/><path d="m1322.1 867.5a71 71 0 0 0 -71.1 71v53.1l71.1-28.5 71.1 28.5v-53.1a71.1 71.1 0 0 0 -71.1-71z" fill="#5c4769" transform="translate(17)"/><path d="m1454.1 677.2-9.9 63.3-121.8 8-121.9-8-9.8-63.3c-10.4-66.3 40.9-126.2 108-126.2h47.3c67.1 0 118.4 59.9 108.1 126.2z" fill="#bf571f" transform="translate(17)"/><path d="m1215.1 722.7h78.6v56.8h-78.6a28.5 28.5 0 0 1 -28.5-28.4 28.5 28.5 0 0 1 28.5-28.4z" fill="#f58a4c" transform="translate(17)"/><path d="m1429.7 722.7h-79.2v56.8h79.2a28.4 28.4 0 0 0 28.4-28.4 28.4 28.4 0 0 0 -28.4-28.4z" fill="#f58a4c" transform="translate(17)"/><path d="m1295.3 862.8h87.5a0 0 0 0 1 0 0v43.3a43.6 43.6 0 0 1 -43.6 43.6h-.1a43.8 43.8 0 0 1 -43.8-43.8v-43.1a0 0 0 0 1 0 0z" fill="#f58a4c"/><path d="m1229.7 658.2h218.7a0 0 0 0 1 0 0v122.4a109.2 109.2 0 0 1 -109.2 109.2h-.1a109.4 109.4 0 0 1 -109.4-109.4v-122.2a0 0 0 0 1 0 0z" fill="#ffa870"/><path d="m1339 718.9a21.9 21.9 0 0 1 21.9 21.9v21.2a0 0 0 0 1 0 0h-43.7a0 0 0 0 1 0 0v-21.3a21.8 21.8 0 0 1 21.8-21.8z" fill="#ff8366"/><path d="m1279.4 735.4a13.1 13.1 0 1 1 -13.1-13.1 13.1 13.1 0 0 1 13.1 13.1z" fill="#7a2f45" transform="translate(17)"/><path d="m1391 735.4a13.2 13.2 0 1 1 -13.2-13.1 13.2 13.2 0 0 1 13.2 13.1z" fill="#7a2f45" transform="translate(17)"/><path d="m1323 908.3h-1.8a108.5 108.5 0 0 1 -108.5-108.4 37.9 37.9 0 0 1 37.8-37.9h143.1a37.9 37.9 0 0 1 37.8 37.9 108.4 108.4 0 0 1 -108.4 108.4z" fill="#bf571f" transform="translate(17)"/><path d="m1373.6 795.5a50.9 50.9 0 0 1 -2.9 17.2 50.4 50.4 0 0 1 -24.7 28.5l-2 1a52.4 52.4 0 0 1 -43.8 0 13.4 13.4 0 0 1 -2.4-1.2 50.5 50.5 0 0 1 -24.4-28.3 53.5 53.5 0 0 1 -2.8-17.2z" fill="#a12d37" transform="translate(17)"/><path d="m1373.6 795.5a50.9 50.9 0 0 1 -2.9 17.2h-97.3a53.5 53.5 0 0 1 -2.8-17.2z" fill="#fff" transform="translate(17)"/><path d="m1344 842.2a52.4 52.4 0 0 1 -43.8 0 21.9 21.9 0 0 1 43.8 0z" fill="#c93945" transform="translate(17)"/><path d="m1258.2 692.6h50.3v13.12h-50.3z" fill="#bf571f"/><path d="m1369.7 692.6h50.3v13.12h-50.3z" fill="#bf571f"/><circle cx="1339.1" cy="991.6" fill="#fff" r="8.9"/><path d="m1480.5 995.1v24.9h-316.6v-24.9a121.1 121.1 0 0 1 74.5-111.7 130.5 130.5 0 0 1 19.5-6.3l2-.4a117.9 117.9 0 0 1 26.1-2.8h73a117.4 117.4 0 0 1 27.4 3.1l1.9.4a121.2 121.2 0 0 1 92.2 117.7z" fill="#644b6e" transform="translate(17)"/><path d="m1405.9 883.2v23.5a83.8 83.8 0 1 1 -167.5 0v-23.3a130.5 130.5 0 0 1 19.5-6.3l2-.4a117.9 117.9 0 0 1 26.1-2.8h73a117.4 117.4 0 0 1 27.4 3.1l1.9.4a120.8 120.8 0 0 1 17.6 5.8z" fill="#382a3d" transform="translate(17)"/><path d="m1386.4 877v29.7a64.3 64.3 0 1 1 -128.5 0v-29.6l2-.4a117.9 117.9 0 0 1 26.1-2.8h73.1a117.2 117.2 0 0 1 27.3 3.1z" fill="#96c466" transform="translate(17)"/><path d="m1312.4 1000.6v-48.3h17.1v48.3a8.5 8.5 0 0 1 -8.5 8.5 8.6 8.6 0 0 1 -8.6-8.5z" fill="#96c466" transform="translate(17)"/><path d="m1344.1 982.5v-41.8h17v41.8a8.5 8.5 0 0 1 -8.5 8.5 8.5 8.5 0 0 1 -8.5-8.5z" fill="#96c466" transform="translate(17)"/><path d="m1290.5 843.3h97.4a0 0 0 0 1 0 0v48.5a48.3 48.3 0 0 1 -48.3 48.3h-.4a48.7 48.7 0 0 1 -48.7-48.7v-48.1a0 0 0 0 1 0 0z" fill="#7bad47"/><path d="m1501.8 794.9v52.4h-324.1v-33.7l-17.6 33.7h-17.5v-52.4c0-99.2 80.5-179.6 179.6-179.6a179.6 179.6 0 0 1 179.6 179.6z" fill="#d1e6ff" transform="translate(17)"/><path d="m1322.2 875.7a109.7 109.7 0 0 1 -109.6-109.6v-93.3c0-60.5 49.3-109.6 109.8-109.6a109.6 109.6 0 0 1 109.4 109.6v93.3a109.7 109.7 0 0 1 -109.6 109.6z" fill="#c6f7be" transform="translate(17)"/><path d="m1200.6 715.7h87.5v63.4h-87.5a32 32 0 0 1 -31.7-32v.2a31.6 31.6 0 0 1 31.7-31.6z" fill="#96c466" transform="translate(17)"/><path d="m1476.1 747.1a30.8 30.8 0 0 1 -1 8 7.4 7.4 0 0 0 -4.4-1.3 8.2 8.2 0 0 0 -8.2 8.2 8.4 8.4 0 0 0 4.6 7.4 31.8 31.8 0 0 1 -22.7 9.7h-88.1v-63.4h88.1a31.5 31.5 0 0 1 31.7 31.4z" fill="#96c466" transform="translate(17)"/><path d="m1443.9 672.8v93.3c0 4.4-.2 8.7-.6 13a121.8 121.8 0 0 1 -72.4 98.6c-2.1 1-4.3 1.8-6.4 2.6a121.5 121.5 0 0 1 -84.6 0c-2.2-.8-4.3-1.6-6.4-2.6a121.6 121.6 0 0 1 -72.4-98.6 112 112 0 0 1 -.7-13v-93.3c0-6.8.9-13.1 2-20.4h34.2c19.8 0 38.2-9.7 48.6-25.9 18-3.5 32.1-19.2 32.1-38.2v-37.1c0-.2 3.6-.2 5.7-.2a120.4 120.4 0 0 1 85.7 35.7c22 22 35.2 52.4 35.2 86.1z" fill="#b3e084" transform="translate(17)"/><path d="m1278 716.9a14.7 14.7 0 1 1 -14.6-14.6 14.6 14.6 0 0 1 14.6 14.6z" fill="#7a2f45" transform="translate(17)"/><circle cx="1408.2" cy="715.1" fill="#dfffbd" r="39.8"/><circle cx="1395.7" cy="733.8" fill="#7a2f45" r="7.8"/><path d="m1299.4 715.7c0 19.5-16.2 36.1-36 36.1a36.4 36.4 0 0 1 -36.1-36.1z" fill="#96c466" transform="translate(17)"/><path d="m1306.5 873.9a6.3 6.3 0 0 1 -6.2-6.3v-35h12.1v35.4a5.9 5.9 0 0 1 -5.9 5.9z" fill="#6fc716" transform="translate(17)"/><path d="m1317.3 551.2v37.1c0 19-14.1 34.7-32.1 38.2-10.4 16.2-28.8 25.9-48.6 25.9h-34.2l16.8-17h17.4c17 0 31.5-9.8 37.5-24.4h3.1c12.3 0 23.1-10.5 23.1-22.7v-22.9z" fill="#6fc716" transform="translate(17)"/><path d="m1403.4 766.9h-52v-28.4h80.4a28.4 28.4 0 0 1 -28.4 28.4z" fill="#96c466" transform="translate(17)"/><path d="m1329.4 786.4h19.5v34.09h-19.5z" fill="#96c466"/><path d="m1344.1 834.6v74.3a7.6 7.6 0 0 1 -7.3 7.9c-4.3-.1-7.3-3.6-7.3-7.9v-74.3z" fill="#6fc716" transform="translate(17)"/><path d="m1344.1 847.2v8.4a25.5 25.5 0 0 1 -13.4 3.8h-18.3a25 25 0 0 1 -12.1-3.8v-8.4z" fill="#6fc716" transform="translate(17)"/><path d="m1344.1 833.9a13.4 13.4 0 0 1 -13.4 13.3h-17a13.4 13.4 0 0 1 -13.4-13.3 13.4 13.4 0 0 1 13.4-13.4h17a13.4 13.4 0 0 1 13.4 13.4z" fill="#7a2f45" transform="translate(17)"/><path d="m1273.5 851.4v26.3a121.6 121.6 0 0 1 -72.4-98.6 72.4 72.4 0 0 1 72.4 72.3z" fill="#96c466" transform="translate(17)"/><path d="m1443.3 779.1a121.8 121.8 0 0 1 -72.4 98.6v-26.3a72.4 72.4 0 0 1 72.4-72.3z" fill="#96c466" transform="translate(17)"/><path d="m1329.4 738.5h19.5v28.35h-19.5z" fill="#7a2f45"/><g clip-path="url(#a)"><path d="m1470.5 1020h-296.7v-.3a142.3 142.3 0 0 1 2.7-27.1 134.3 134.3 0 0 1 8.6-27.4 138.4 138.4 0 0 1 43.3-54.8 145 145 0 0 1 20.9-12.9 136.5 136.5 0 0 1 61.2-14.4h23.1a135.8 135.8 0 0 1 61.4 14.5 146.9 146.9 0 0 1 20.8 12.8 139 139 0 0 1 27.3 27.4 136.4 136.4 0 0 1 16 27.4 141.1 141.1 0 0 1 8.7 27.4 137.6 137.6 0 0 1 2.7 27.4z" fill="#73648c" transform="translate(17)"/><g fill="#ff4d60"><path d="m1487.5 1020h-296.7v-.3l2.7-27.1h291.3z"/><path d="m1459.1 965.2h-274a141.3 141.3 0 0 1 16-27.4h242a136.4 136.4 0 0 1 16 27.4z" transform="translate(17)"/><path d="m1415.8 910.4h-187.4a136.1 136.1 0 0 1 82.1-27.3h23.1a137.1 137.1 0 0 1 82.2 27.3z" transform="translate(17)"/></g><path d="m1209.4 828.6h69.9v-152.3h-69.9a76.1 76.1 0 0 0 -74.9 62.7 76.2 76.2 0 0 0 74.9 89.6z" fill="#5c4769" transform="translate(17)"/><path d="m1434.9 828.6h-69.8v-152.3h69.8a76.2 76.2 0 0 1 75 62.7c8.4 46.6-27.5 89.6-75 89.6z" fill="#5c4769" transform="translate(17)"/><path d="m1339.2 551a142 142 0 0 1 142 142 114.1 114.1 0 0 1 -114.2 114.1h-55.7a114.1 114.1 0 0 1 -114.1-114.1 142 142 0 0 1 142-142z" fill="#5c4769"/><path d="m1208.2 700.8h82v59.3h-82a29.7 29.7 0 0 1 -29.7-29.7 29.6 29.6 0 0 1 29.7-29.6z" fill="#f59055" transform="translate(17)"/><path d="m1436.7 700.8h-82.6v59.3h82.6a29.7 29.7 0 0 0 29.7-29.7 29.6 29.6 0 0 0 -29.7-29.6z" fill="#f59055" transform="translate(17)"/><path d="m1395 897.6a73.1 73.1 0 0 1 -72.7 67.6h-.1a73.2 73.2 0 0 1 -72.9-67.7 136.5 136.5 0 0 1 61.2-14.4h23.1a135.8 135.8 0 0 1 61.4 14.5z" fill="#ffa870" transform="translate(17)"/><path d="m1293.5 847.1h91.3a0 0 0 0 1 0 0v45.2a45.5 45.5 0 0 1 -45.5 45.5h-.1a45.7 45.7 0 0 1 -45.7-45.7v-45a0 0 0 0 1 0 0z" fill="#f59055"/><rect fill="#ffa870" height="285.29" rx="114.1" width="228.2" x="1225.1" y="588.9"/><circle cx="1281" cy="714" fill="#7a2f45" r="13.7"/><circle cx="1397.4" cy="714" fill="#7a2f45" r="13.7"/><path d="m1339.1 696.9a22.9 22.9 0 0 1 22.9 22.9v22.1a0 0 0 0 1 0 0h-45.6a0 0 0 0 1 0 0v-22.3a22.7 22.7 0 0 1 22.7-22.7z" fill="#f57355"/><path d="m1390.6 760.1a70.8 70.8 0 0 1 -3.7 22.8 67.5 67.5 0 0 1 -32.9 38 69.4 69.4 0 0 1 -64.1-.3 67.1 67.1 0 0 1 -32.4-37.7 68.2 68.2 0 0 1 -3.8-22.8z" fill="#a12d37" transform="translate(17)"/><path d="m1390.6 760.1a70.8 70.8 0 0 1 -3.7 22.8h-129.4a68.2 68.2 0 0 1 -3.8-22.8z" fill="#fff" transform="translate(17)"/><path d="m1354 820.9a69.4 69.4 0 0 1 -64.1-.3 34.4 34.4 0 0 1 64.1.3z" fill="#c93945" transform="translate(17)"/><path d="m1371.3 581.6h-73.1a90.2 90.2 0 0 0 -90.1 90.2v29a125.2 125.2 0 0 0 93.1-41.5z" fill="#5c4769" transform="translate(17)"/><path d="m1273 581.6h72.9a90.3 90.3 0 0 1 90.3 90.3v28.9a125.3 125.3 0 0 1 -93.1-41.5z" fill="#5c4769" transform="translate(17)"/></g><path d="m303.8 517.5h34.5a34.5 34.5 0 0 1 -34.5 34.5h-172.4a69 69 0 0 1 69-69h137.9a34.5 34.5 0 0 1 -34.5 34.5z" fill="#3d2f45" transform="translate(17)"/><path d="m226 738.2h17.5a103.5 103.5 0 0 1 103.4 103.5 0 0 0 0 1 0 0h-224.1a0 0 0 0 1 0 0v-.2a103.3 103.3 0 0 1 103.2-103.3z" fill="#ff4d60"/><path d="m269.6 789.3h-103.5a43.1 43.1 0 0 1 -43.1-43.1 43.1 43.1 0 0 1 43.1-43.1h103.5a43.1 43.1 0 0 1 43.1 43.1 43.1 43.1 0 0 1 -43.1 43.1z" fill="#fe932e" transform="translate(17)"/><path d="m289.5 734.6a17.4 17.4 0 0 1 -10.7 16.1l-26.5 11.3-34.6 14.7-34.3-14.6-26.5-11.3a17.7 17.7 0 0 1 -10.7-16.2 17.6 17.6 0 0 1 17.6-17.6h108.1a17.6 17.6 0 0 1 17.6 17.6z" fill="#f27501" transform="translate(17)"/><path d="m269.3 701.5v60.5l-34.6 14.7-34.3-14.6v-60.6z" fill="#96442b"/><path d="m193.4 841.7h-10v-59.9a5 5 0 0 1 5-5.1 5 5 0 0 1 5 5.1z" fill="#fff" transform="translate(17)"/><path d="m252.3 841.7h-10.1v-59.9a5.1 5.1 0 0 1 5.1-5.1 5 5 0 0 1 5 5.1z" fill="#fff" transform="translate(17)"/><path d="m133.2 593.4h62v44.8h-62a22.4 22.4 0 0 1 -22.4-22.5 22.4 22.4 0 0 1 22.4-22.3z" fill="#96442b" transform="translate(17)"/><path d="m302.4 593.4h-62.4v44.8h62.4a22.5 22.5 0 0 0 22.5-22.5 22.4 22.4 0 0 0 -22.5-22.3z" fill="#96442b" transform="translate(17)"/><path d="m148.4 552h172.4a0 0 0 0 1 0 0v86.9a86.2 86.2 0 0 1 -86.2 86.2 86.2 86.2 0 0 1 -86.2-86.2v-86.9a0 0 0 0 1 0 0z" fill="#bf593a"/><path d="m269.3 638.2a53.5 53.5 0 0 1 -2.8 17.2 50.6 50.6 0 0 1 -24.8 28.7 52.8 52.8 0 0 1 -48.5-.2 50.8 50.8 0 0 1 -24.5-28.5 53.5 53.5 0 0 1 -2.8-17.2z" fill="#a12d37" transform="translate(17)"/><path d="m269.3 638.2a53.5 53.5 0 0 1 -2.8 17.2h-97.8a53.5 53.5 0 0 1 -2.8-17.2z" fill="#fff" transform="translate(17)"/><path d="m241.7 684.1a52.8 52.8 0 0 1 -48.5-.2 26 26 0 0 1 48.5.2z" fill="#c93945" transform="translate(17)"/><path d="m234.6 590.4a17.2 17.2 0 0 1 17.2 17.2v16.7a0 0 0 0 1 0 0h-34.4a0 0 0 0 1 0 0v-16.6a17.2 17.2 0 0 1 17.2-17.3z" fill="#96442b"/><path d="m184 603.4a10.4 10.4 0 1 1 -10.4-10.4 10.3 10.3 0 0 1 10.4 10.4z" fill="#66273a" transform="translate(17)"/><path d="m271.9 603.4a10.4 10.4 0 0 1 -20.7 0 10.4 10.4 0 1 1 20.7 0z" fill="#66273a" transform="translate(17)"/><path d="m0 842h657v192h-657z" fill="#ff4d60"/><g transform="translate(17)"><path d="m910.9 42.9a177.1 177.1 0 0 0 -88.9-24.9v57.6h-.1v121.5l72.4-125.5z" fill="#fcea10"/><path d="m821.9 197.2-60.9-105.5h.1l-29.2-50.6a179.6 179.6 0 0 0 -66.6 65.5l21.7 12.5z" fill="#e6332a"/><path d="m998.8 197.1a178.7 178.7 0 0 0 -23.4-88.7l-48.2 27.8-105.2 60.9z" fill="#8cb214"/><path d="m821.9 41.1h.1v-23.1h-2.1a178.2 178.2 0 0 0 -88 23.1l22.5 39 67.5 117h.1z" fill="#f39200"/><path d="m975.4 108.4a178.5 178.5 0 0 0 -64.5-65.5l-28.2 48.8-60.7 105.3 124-71.7z" fill="#95c11f"/><path d="m821.9 197.1-105.4-60.9-51.2-29.6a179.1 179.1 0 0 0 -24.5 90.5z" fill="#d81d19"/><path d="m667.6 157.9h4.8c4.1 0 8.3 2.3 8.3 9.7s-4.2 9.8-8.3 9.8v12.9h-4.8zm4.8 14.6c3 0 3.5-1.1 3.5-4.7s-.5-5-3.5-5z" fill="#fff"/><path d="m689.6 190.7c-6.4 0-6.4-7-6.4-7v-19.1s0-7 6.4-7 6.3 7 6.3 7v19.1s0 7-6.3 7zm0-28.5c-1.7 0-1.6 2.4-1.6 2.4v19.1s-.1 2.3 1.6 2.3 1.5-2.3 1.5-2.3v-19.1s.1-2.4-1.5-2.4z" fill="#fff"/><path d="m705.1 190.7c-6.3 0-6.3-7-6.3-7v-19.1s0-7 6.3-7 6.4 7 6.4 7v19.1s0 7-6.4 7zm0-28.5c-1.6 0-1.5 2.4-1.5 2.4v19.1s-.1 2.3 1.5 2.3 1.6-2.3 1.6-2.3v-19.1s.1-2.4-1.6-2.4z" fill="#fff"/><path d="m723.2 190.3-2.5-13.7h-1.2v13.7h-4.8v-32.4h4.8c5.6 0 8.1 3.3 8.1 9.4 0 3.2-.9 6.1-2.7 7.3l3.1 15.7zm-3.7-27.7v9.6c1.3 0 3.5-.1 3.5-4.8s-2.2-4.8-3.5-4.8z" fill="#fff"/><path d="m919.2 169.4v-5.2s.1-2.5-1.7-2.5-1.6 2.5-1.6 2.5v20.2s-.1 2.5 1.6 2.5 1.7-2.5 1.7-2.5v-6.1h-2v-4.1h6.9v16.7h-2.9l-.6-1.6a4.8 4.8 0 0 1 -3.8 2c-6.3 0-5.9-7.3-5.9-7.3v-19.8s0-7.3 6.6-7.3 6.6 7.3 6.6 7.3v5.2z" fill="#fff"/><path d="m934 191.3c-6.6 0-6.6-7.3-6.6-7.3v-19.8s0-7.3 6.6-7.3 6.6 7.3 6.6 7.3v19.8s0 7.3-6.6 7.3zm0-29.6c-1.7 0-1.6 2.5-1.6 2.5v19.8s-.1 2.5 1.6 2.5 1.7-2.5 1.7-2.5v-19.8s0-2.5-1.7-2.5z" fill="#fff"/><path d="m950.2 191.3c-6.6 0-6.6-7.3-6.6-7.3v-19.8s0-7.3 6.6-7.3 6.6 7.3 6.6 7.3v19.8s0 7.3-6.6 7.3zm0-29.6c-1.7 0-1.6 2.5-1.6 2.5v19.8s-.1 2.5 1.6 2.5 1.7-2.5 1.7-2.5v-19.8s0-2.5-1.7-2.5z" fill="#fff"/><path d="m964 190.9h-3.9v-33.6h3.9c9.2 0 9.9 3.7 9.9 16.8s-.7 16.8-9.9 16.8zm1.1-4.9c3.5 0 3.7-.9 3.6-11.9s-.1-11.9-3.6-11.9z" fill="#fff"/><path d="m839 188.6-14.6-117.8a1.9 1.9 0 0 0 -3.8 0l-15.1 117.4.4-.2c9.9-6.4 23.9-5.9 33.1.6z" fill="#33415e"/></g><circle cx="821.9" cy="196.1" fill="#263147" r="22" transform="matrix(.98741381 -.15815807 .15815807 .98741381 -3.7 133.1)"/><path d="m342.3 471.8h106.6c0 42.6-21.3 63.9-21.3 63.9 64 0 85.3-63.9 85.3-63.9h42.6c42.7 0 42.7-42.7 42.7-42.7s21.3-149.3 21.3-191.9-42.6-42.7-42.6-42.7h-255.9c-42.7 0-42.7 42.7-42.7 42.7l21.4 191.9s0 42.7 42.6 42.7z" fill="#0071bc" transform="translate(17)"/><path d="m333.8 463.2h106.6c0 42.7-21.3 64-21.3 64 63.9 0 85.3-64 85.3-64h42.6c42.7 0 42.7-42.6 42.7-42.6s21.3-149.3 21.3-192-42.7-42.6-42.7-42.6h-255.9c-42.6 0-42.6 42.6-42.6 42.6l21.3 192s0 42.6 42.7 42.6z" fill="#fff" transform="translate(17)"/><path d="m948.3 344.5c-103.8 0-187.9 76.3-187.9 170.4s84.1 170.3 187.9 170.3a201.5 201.5 0 0 0 100.5-26.4l87.4 26.4-29.1-79.2c18.4-26.4 29.1-57.6 29.1-91.1 0-94.1-84.1-170.4-187.9-170.4z" fill="#0071bc" transform="translate(17)"/><path d="m938.9 336c-103.8 0-187.9 76.3-187.9 170.4s84.1 170.3 187.9 170.3a201.5 201.5 0 0 0 100.5-26.4l87.4 26.4-29.1-79.2c18.4-26.4 29.1-57.6 29.1-91.1 0-94.1-84.1-170.4-187.9-170.4z" fill="#fff" transform="translate(17)"/></svg>